Coordinates
version=1
nRows=30
nColumns=33
inDegrees=yes

Units are S.I. units (second, meters, Newtons, ...)
Angles are in degrees.

endheader
time	ground_thorax_rot_x	ground_thorax_rot_y	ground_thorax_rot_z	ground_thorax_tx	ground_thorax_ty	ground_thorax_tz	clav_prot_r	clav_elev_r	scapula_abduction_r	scapula_elevation_r	scapula_upward_rot_r	scapula_winging_r	shoulder_elv_r	plane_of_elev_r	axial_rot_r	elbow_flexion_r	pro_sup_r	wrist_flex_r	wrist_dev_r	clav_prot_l	clav_elev_l	scapula_abduction_l	scapula_elevation_l	scapula_upward_rot_l	scapula_winging_l	shoulder_elv_l	plane_of_elev_l	axial_rot_l	elbow_flexion_l	pro_sup_l	wrist_flex_l	wrist_dev_l	
6.2000	0.058819	0.378288	12.583299	-0.114488	1.026499	0.019183	8.756383	-8.142814	16.060959	-1.900482	1.664041	-3.960695	-43.225439	-72.292312	97.351426	-77.702116	-149.609865	38.519933	-23.196258	8.094398	-2.926495	-8.885269	-18.466552	-33.942798	-2.415375	63.101345	-28.988816	3.483283	69.647187	18.267861	9.947791	-21.038902	
6.2100	-0.048426	0.464464	12.568880	-0.114471	1.026444	0.019161	8.936090	-8.313108	16.457987	-2.116198	1.817888	-4.060815	-41.802685	-72.050257	98.408746	-78.677445	-150.255499	36.243760	-22.297224	8.330578	-3.140848	-9.299274	-18.145457	-33.728966	-2.202323	63.399649	-28.268948	3.658072	69.464893	18.059202	11.547839	-19.768914	
6.2200	-0.174950	0.572457	12.564127	-0.114480	1.026386	0.019106	9.118099	-8.500285	16.884326	-2.367314	2.022219	-4.168151	-40.370854	-71.764727	99.435949	-79.556006	-150.907933	33.973879	-21.145517	8.606622	-3.363582	-9.782144	-17.805016	-33.493687	-1.958123	63.662135	-27.524370	3.811308	69.156094	17.874846	12.954061	-18.526854	
6.2300	-0.316470	0.696089	12.560779	-0.114508	1.026305	0.019009	9.312904	-8.700025	17.355695	-2.647900	2.273011	-4.289214	-38.927180	-71.428247	100.443143	-80.349035	-151.618421	31.612574	-19.780727	8.917143	-3.595317	-10.324251	-17.446135	-33.239525	-1.686641	63.884248	-26.753188	3.972552	68.729516	17.680714	14.283242	-17.366640	
6.2400	-0.473602	0.836698	12.559748	-0.114549	1.026225	0.018869	9.518265	-8.914249	17.875945	-2.965417	2.585008	-4.425340	-37.502216	-71.039252	101.402211	-81.012669	-152.333314	29.237038	-18.246398	9.258590	-3.840052	-10.918850	-17.063639	-32.963405	-1.389696	64.069038	-25.959959	4.131615	68.170774	17.493937	15.499918	-16.327167	
6.2500	-0.642393	0.989956	12.564667	-0.114601	1.026131	0.018688	9.737826	-9.129482	18.448227	-3.304876	2.952363	-4.582112	-36.058413	-70.591783	102.356212	-81.539981	-153.020579	26.785625	-16.575843	9.627528	-4.095127	-11.560599	-16.665700	-32.676479	-1.070939	64.217457	-25.141422	4.305494	67.493822	17.320347	16.680584	-15.354571	
6.2600	-0.821980	1.152258	12.582050	-0.114669	1.026034	0.018462	9.971577	-9.343739	19.068469	-3.660538	3.366451	-4.758190	-34.549427	-70.090226	103.353468	-81.903703	-153.645184	24.246095	-14.772600	10.024330	-4.363033	-12.251884	-16.256357	-32.392029	-0.731104	64.334383	-24.299227	4.501200	66.700663	17.170334	17.848609	-14.430090	
6.2700	-1.010466	1.325057	12.605274	-0.114736	1.025915	0.018197	10.213926	-9.547606	19.726241	-4.022512	3.824933	-4.952492	-32.947614	-69.528964	104.423841	-82.087841	-154.174937	21.668422	-12.886068	10.446893	-4.637912	-12.988301	-15.842548	-32.112344	-0.372223	64.421472	-23.427927	4.723854	65.803161	17.054766	18.994705	-13.562503	
6.2800	-1.209924	1.510261	12.624587	-0.114781	1.025819	0.017900	10.460184	-9.761824	20.420722	-4.413299	4.339200	-5.155628	-31.314742	-68.910268	105.498724	-82.038060	-154.569873	19.237329	-11.065761	10.879782	-4.928231	-13.741470	-15.411448	-31.826245	-0.004992	64.497629	-22.538083	4.946079	64.789529	16.992161	20.050118	-12.784384	
6.2900	-1.409979	1.703857	12.641675	-0.114804	1.025710	0.017582	10.713995	-9.954891	21.164710	-4.809120	4.921857	-5.386585	-29.661445	-68.231517	106.587730	-81.747294	-154.823449	16.941089	-9.288428	11.325865	-5.223897	-14.515569	-14.973322	-31.535067	0.372970	64.542928	-21.621225	5.183394	63.663408	16.979371	21.029858	-12.095161	
6.3000	-1.615137	1.899349	12.645757	-0.114793	1.025618	0.017244	10.979109	-10.152114	21.965497	-5.231335	5.571802	-5.636454	-28.036361	-67.501236	107.633824	-81.194856	-154.940520	14.866351	-7.639573	11.774141	-5.528688	-15.290930	-14.522980	-31.234440	0.753083	64.574440	-20.691615	5.426185	62.433224	17.015245	21.910069	-11.492867	
6.3100	-1.816030	2.089677	12.637162	-0.114753	1.025496	0.016893	11.254132	-10.318558	22.825389	-5.650881	6.296212	-5.921883	-26.409472	-66.721946	108.692935	-80.388223	-154.924943	12.948554	-6.054696	12.231801	-5.826715	-16.080407	-14.079694	-30.933768	1.140814	64.566411	-19.731175	5.711929	61.108793	17.088347	22.731961	-10.962350	
6.3200	-2.013230	2.275957	12.612635	-0.114671	1.025393	0.016535	11.539676	-10.479649	23.737009	-6.083409	7.077835	-6.228499	-24.814458	-65.896156	109.704002	-79.307008	-154.763361	11.299250	-4.632486	12.688395	-6.129414	-16.865369	-13.632026	-30.631038	1.528007	64.538847	-18.754398	6.019259	59.685237	17.207111	23.451750	-10.523262	
6.3300	-2.192174	2.456236	12.591339	-0.114570	1.025246	0.016179	11.835428	-10.590127	24.689798	-6.480797	7.897807	-6.571848	-23.179531	-65.030962	110.759255	-77.989445	-154.480525	9.749201	-3.235227	13.159461	-6.420008	-17.674257	-13.203645	-30.343476	1.925626	64.458407	-17.742221	6.375956	58.171094	17.356244	24.147711	-10.136168	
6.3400	-2.367386	2.636986	12.560730	-0.114426	1.025127	0.015827	12.134216	-10.710889	25.659562	-6.887029	8.731097	-6.913119	-21.547006	-64.139981	111.771116	-76.433733	-154.100609	8.394678	-1.978194	13.628195	-6.714310	-18.477076	-12.774020	-30.057971	2.320109	64.369188	-16.726236	6.732909	56.578041	17.539027	24.764520	-9.805231	
6.3500	-2.527311	2.818958	12.528759	-0.114243	1.024994	0.015486	12.427408	-10.802119	26.638415	-7.270195	9.587906	-7.267815	-19.903245	-63.232014	112.783466	-74.656890	-153.628625	7.190569	-0.813116	14.101226	-6.992467	-19.285480	-12.361262	-29.774387	2.718773	64.238666	-15.683681	7.105720	54.902892	17.746819	25.320325	-9.523268	
6.3600	-2.684462	3.004874	12.483455	-0.113996	1.024914	0.015158	12.713224	-10.914635	27.621677	-7.673146	10.463936	-7.609361	-18.324435	-62.319513	113.684979	-72.661148	-153.096757	6.212173	0.164829	14.560485	-7.270638	-20.066907	-11.941973	-29.474174	3.107389	64.103502	-14.651479	7.451276	53.160651	17.978100	25.761578	-9.291172	
6.3700	-2.824803	3.186675	12.434333	-0.113697	1.024834	0.014846	12.990412	-10.999600	28.619804	-8.059595	11.379494	-7.965196	-16.796917	-61.413880	114.533761	-70.471780	-152.495423	5.382723	1.035351	15.015539	-7.526214	-20.839032	-11.538960	-29.162205	3.495970	63.919669	-13.603856	7.813625	51.350912	18.221923	26.118906	-9.096989	
6.3800	-2.962906	3.365408	12.365567	-0.113326	1.024812	0.014548	13.261320	-11.101720	29.634669	-8.467499	12.331409	-8.314267	-15.371191	-60.525249	115.247393	-68.105292	-151.849098	4.724560	1.739796	15.453199	-7.773834	-21.578475	-11.132789	-28.825437	3.873552	63.725908	-12.575362	8.157849	49.499600	18.476711	26.361382	-8.932959	
6.3900	-3.079666	3.531532	12.294695	-0.112911	1.024770	0.014261	13.532239	-11.152851	30.683579	-8.840376	13.330174	-8.698400	-14.000030	-59.656195	115.925324	-65.582434	-151.102617	4.173024	2.357845	15.892566	-7.987561	-22.320303	-10.755112	-28.481862	4.258124	63.469100	-11.530892	8.539741	47.606176	18.739634	26.524906	-8.803584	
6.4000	-3.182123	3.689992	12.220216	-0.112462	1.024736	0.013995	13.816722	-11.175957	31.770392	-9.186794	14.344333	-9.109521	-12.682506	-58.802713	116.528173	-62.934538	-150.243240	3.711547	2.866206	16.333869	-8.185717	-23.065143	-10.390219	-28.134206	4.648134	63.184204	-10.500870	8.923015	45.696203	19.020248	26.603752	-8.706484	
6.4100	-3.266095	3.842743	12.148920	-0.111988	1.024687	0.013748	14.113462	-11.157091	32.889149	-9.492025	15.367358	-9.552481	-11.406478	-57.977738	117.085816	-60.197959	-149.265323	3.318944	3.284262	16.781348	-8.361518	-23.821212	-10.046514	-27.787431	5.047777	62.866779	-9.478511	9.295943	43.775063	19.320764	26.612866	-8.641265	
6.4200	-3.339877	3.996558	12.074390	-0.111488	1.024645	0.013526	14.429271	-11.117809	34.045932	-9.771852	16.390613	-10.020611	-10.212965	-57.190833	117.535227	-57.406314	-148.175596	3.011955	3.563462	17.229940	-8.524331	-24.579619	-9.710429	-27.431411	5.453780	62.545211	-8.488162	9.607984	41.861664	19.644564	26.528224	-8.607621	
6.4300	-3.403824	4.147877	12.005716	-0.110959	1.024607	0.013328	14.753419	-11.058195	35.223144	-10.026695	17.415368	-10.504979	-9.103478	-56.464542	117.907674	-54.602312	-147.022459	2.759112	3.743124	17.675103	-8.669693	-25.333144	-9.387870	-27.069125	5.861373	62.214503	-7.532414	9.858636	39.960799	19.978177	26.376514	-8.590405	
6.4400	-3.455277	4.296537	11.932208	-0.110395	1.024570	0.013152	15.087785	-10.974105	36.432875	-10.256853	18.454356	-11.013498	-8.104455	-55.810830	118.178789	-51.816928	-145.791960	2.579964	3.789276	18.114086	-8.796033	-26.077702	-9.075942	-26.692255	6.270756	61.871216	-6.611272	10.050068	38.083144	20.315762	26.130487	-8.593116	
6.4500	-3.505360	4.442515	11.846786	-0.109766	1.024583	0.012987	15.410179	-10.906647	37.631679	-10.495977	19.499525	-11.503930	-7.215359	-55.255662	118.365539	-49.110469	-144.593334	2.432645	3.749137	18.529568	-8.912757	-26.783417	-8.766432	-26.299238	6.663810	61.541203	-5.740561	10.168481	36.243881	20.636316	25.828584	-8.582810	
6.4600	-3.541887	4.582613	11.744505	-0.109076	1.024611	0.012831	15.723163	-10.824079	38.832242	-10.719970	20.561753	-11.998455	-6.434196	-54.803128	118.499597	-46.515427	-143.386477	2.332289	3.618274	18.926404	-9.005027	-27.460230	-8.471258	-25.888248	7.048838	61.191926	-4.896407	10.252948	34.445846	20.928739	25.450221	-8.571112	
6.4700	-3.578507	4.722380	11.631345	-0.108313	1.024701	0.012678	16.009992	-10.774712	39.974341	-10.957878	21.594778	-12.446806	-5.744582	-54.463809	118.609811	-44.109121	-142.288596	2.228033	3.465377	19.291816	-9.094138	-28.085175	-8.177568	-25.470552	7.408021	60.864866	-4.106346	10.262185	32.706543	21.181947	25.054624	-8.525970	
6.4800	-3.596204	4.857938	11.505246	-0.107506	1.024786	0.012533	16.284260	-10.697771	41.087177	-11.160181	22.606444	-12.896067	-5.139408	-54.222641	118.736064	-41.915577	-141.196976	2.150200	3.279565	19.641761	-9.159467	-28.687491	-7.902953	-25.046518	7.760872	60.511094	-3.335838	10.253130	31.021852	21.390538	24.598608	-8.476975	
6.4900	-3.616108	5.004713	11.366260	-0.106647	1.024926	0.012399	16.530726	-10.652987	42.100643	-11.361676	23.532559	-13.287498	-4.608893	-54.069280	118.872718	-40.012770	-140.230633	2.053962	3.120180	19.965587	-9.233320	-29.246672	-7.624548	-24.627259	8.089264	60.200365	-2.623018	10.149991	29.416836	21.558954	24.149078	-8.394696	
